<svg width="40" height="40" viewBox="0 0 40 40" fill="none" xmlns="http://www.w3.org/2000/svg">
<g clip-path="url(#clip0)">
<path d="M35.1788 10.3383C36.6839 12.6834 37.6624 15.4271 37.9281 18.3952C38.184 21.2538 37.7492 24.0236 36.7688 26.531L38.5747 27.4135C39.7076 24.5912 40.2099 21.454 39.9201 18.2169C39.625 14.9201 38.55 11.8838 36.8806 9.27229L35.1788 10.3383Z" fill="#F8C83C"/>
<path d="M6.71509 7.86611C9.64023 4.65253 13.7336 2.48896 18.395 2.07172C25.3173 1.45209 31.6755 4.84876 35.1888 10.3374L36.8905 9.27142C33.0005 3.16391 25.9259 -0.610377 18.2167 0.0796822C13.0374 0.543288 8.50277 2.93711 5.25666 6.49066L6.71509 7.86611Z" fill="#4CD370"/>
<path d="M5.24701 6.49149C1.58835 10.4836 -0.441802 15.9564 0.0797539 21.7831C0.602202 27.6197 3.58201 32.6441 7.91231 35.9311L9.14669 34.3548C5.23693 31.3915 2.54253 26.8637 2.07179 21.6048C1.60373 16.3757 3.43302 11.463 6.71541 7.86605L5.24701 6.49149Z" fill="#0856D7"/>
<path d="M21.6045 37.9283C16.973 38.3429 12.5921 36.958 9.14628 34.3548L7.91191 35.9311C11.7366 38.8417 16.6135 40.3831 21.7828 39.9204C29.5418 39.2258 35.8673 34.1818 38.5746 27.4135L36.7687 26.531C34.3583 32.6904 28.6264 37.2998 21.6045 37.9283Z" fill="#EF5E52"/>
</g>
<defs>
<clipPath id="clip0">
<rect width="40" height="40" fill="white"/>
</clipPath>
</defs>
</svg>
