<svg width="398" height="135" viewBox="0 0 398 135" fill="none" xmlns="http://www.w3.org/2000/svg">
<path d="M62.3906 29.2656V77.8311C62.3906 85.9 59.8585 92.2808 54.7944 96.9736C49.764 101.666 42.8767 104.013 34.1325 104.013C25.5234 104.013 18.6868 101.734 13.6226 97.1762C8.55845 92.6184 5.97573 86.3557 5.87444 78.3881V29.2656H21.067V77.9323C21.067 82.7602 22.2148 86.2882 24.5106 88.5165C26.8401 90.7109 30.0474 91.8082 34.1325 91.8082C42.6741 91.8082 47.0124 87.3179 47.1475 78.3375V29.2656H62.3906ZM223.128 75.0964C223.128 69.6609 224.174 64.8161 226.267 60.5622C228.361 56.3083 231.365 53.0166 235.282 50.6871C239.232 48.3576 243.806 47.1928 249.005 47.1928C256.399 47.1928 262.426 49.4548 267.085 53.9788C271.777 58.5028 274.394 64.6473 274.934 72.4124L275.035 76.1599C275.035 84.5664 272.689 91.3186 267.996 96.4166C263.303 101.481 257.007 104.013 249.107 104.013C241.207 104.013 234.893 101.481 230.167 96.4166C225.474 91.3524 223.128 84.4651 223.128 75.7547V75.0964ZM237.763 76.1599C237.763 81.3591 238.742 85.3429 240.7 88.1113C242.658 90.846 245.461 92.2133 249.107 92.2133C252.652 92.2133 255.42 90.8629 257.412 88.162C259.404 85.4273 260.4 81.0721 260.4 75.0964C260.4 69.9985 259.404 66.0484 257.412 63.2462C255.42 60.4441 252.618 59.043 249.005 59.043C245.427 59.043 242.658 60.4441 240.7 63.2462C238.742 66.0146 237.763 70.3192 237.763 76.1599Z" fill="#0856D7"/>
<path d="M91.0032 103H75.8107V29.2656H91.0032V103ZM297.52 48.2056L297.976 54.5358C301.892 49.6405 307.142 47.1928 313.726 47.1928C319.533 47.1928 323.854 48.8977 326.69 52.3076C329.526 55.7175 330.978 60.8154 331.045 67.6014V103H316.41V67.9559C316.41 64.8499 315.734 62.6048 314.384 61.2206C313.034 59.8026 310.788 59.0936 307.649 59.0936C303.53 59.0936 300.441 60.8492 298.381 64.3603V103H283.746V48.2056H297.52Z" fill="#EF5E52"/>
<path d="M188.843 78.4388C188.269 86.3726 185.332 92.6184 180.031 97.1762C174.765 101.734 167.81 104.013 159.167 104.013C149.714 104.013 142.27 100.839 136.834 94.4922C131.432 88.1113 128.731 79.3672 128.731 68.2598V63.7526C128.731 56.6628 129.98 50.417 132.479 45.0152C134.977 39.6134 138.539 35.4777 143.164 32.608C147.823 29.7045 153.225 28.2528 159.37 28.2528C167.877 28.2528 174.731 30.5317 179.93 35.0894C185.129 39.6472 188.134 46.0449 188.944 54.2826H173.752C173.38 49.5223 172.047 46.0787 169.751 43.9517C167.489 41.791 164.029 40.7107 159.37 40.7107C154.305 40.7107 150.507 42.5338 147.975 46.18C145.477 49.7924 144.194 55.4136 144.126 63.0437V68.6143C144.126 76.5819 145.325 82.4057 147.722 86.0857C150.153 89.7656 153.968 91.6056 159.167 91.6056C163.86 91.6056 167.354 90.5421 169.65 88.4152C171.979 86.2545 173.313 82.929 173.651 78.4388H188.843ZM367.406 104.013C359.371 104.013 352.821 101.548 347.757 96.6191C342.726 91.69 340.211 85.1235 340.211 76.9195V75.5015C340.211 69.9985 341.275 65.0862 343.402 60.7648C345.529 56.4096 348.533 53.0672 352.416 50.7377C356.332 48.3744 360.789 47.1928 365.785 47.1928C373.28 47.1928 379.172 49.5561 383.459 54.2826C387.781 59.0092 389.941 65.7108 389.941 74.3874V80.3631H355.049C355.522 83.9418 356.94 86.8115 359.303 88.9722C361.7 91.133 364.722 92.2133 368.368 92.2133C374.006 92.2133 378.412 90.1708 381.586 86.0857L388.777 94.1377C386.582 97.2437 383.611 99.6745 379.864 101.43C376.116 103.152 371.964 104.013 367.406 104.013ZM365.735 59.043C362.831 59.043 360.468 60.022 358.645 61.9802C356.855 63.9383 355.708 66.7405 355.201 70.3867H375.559V69.222C375.492 65.9809 374.614 63.4826 372.926 61.727C371.238 59.9376 368.841 59.043 365.735 59.043Z" fill="#F8C83C"/>
<path d="M213.303 103H198.617V25.2143H213.303V103Z" fill="#4CD370"/>
</svg>
